<svg width="430" height="430" xmlns="http://www.w3.org/2000/svg"><g fill="#1D1D1B" fill-rule="nonzero"><path d="M391.68 104.27c3.11 8.42 6.43 17.64 4.73 26.74-1.2 6.41-4.59 14.55-9.79 18.68-9.7 7.71-28.29 5.56-38.54.2-2.14-1.12-4 2.12-1.89 3.24 11.59 6.07 31.76 8.25 42.71-.43 5.54-4.39 9-12.24 10.73-19 2.63-10.36-.76-20.78-4.34-30.46-.83-2.24-4.45-1.27-3.62 1l.01.03z"/><path d="M414.07 96.93c9.32 18.09 15.58 42.95 8.21 62.73-7.47 20-25.89 33.22-46.51 36.93-2.37.43-1.37 4 1 3.62 21.58-3.87 40.36-17.71 48.64-38.29 8.43-21 1.85-47.56-8.1-66.87-1.11-2.15-4.34-.25-3.24 1.89v-.01zM363.46 198.92a133.28 133.28 0 0 1-53.46 1.64c-2.36-.42-3.37 3.19-1 3.62a137.86 137.86 0 0 0 55.44-1.64c2.35-.56 1.35-4.18-1-3.62h.02z"/><path d="M393.94 103.89a89.68 89.68 0 0 1 10.81-4c2.37-.73 7.17-3.11 9.62-2.83l-1.81-2.37v.13l2.31-1.31h-.1c-2.34-.61-3.34 3-1 3.62h.1a1.92 1.92 0 0 0 2.31-1.31v-.13a1.9 1.9 0 0 0-1.81-2.37c-3-.35-7.78 2.08-10.61 3a97.3 97.3 0 0 0-11.76 4.33c-2.19 1-.29 4.24 1.89 3.24h.05zM399.1 119.15c7.1-1.91 14-5 21-7.52 2.25-.82 1.28-4.45-1-3.62-6.9 2.53-13.85 5.61-21 7.52-2.33.63-1.34 4.24 1 3.62z"/><path d="M399.42 101.77a216.54 216.54 0 0 1 4.09 11.57c.74 2.29 4.36 1.31 3.62-1a216.54 216.54 0 0 0-4.09-11.57c-.86-2.23-4.49-1.26-3.62 1zM406.45 98.89a111.52 111.52 0 0 1 4.44 11.66c.73 2.29 4.35 1.31 3.62-1A120.18 120.18 0 0 0 409.69 97c-1-2.2-4.22-.29-3.24 1.89zM393.94 99.66c-4.52-3.1-9.19-6.14-13.48-9.56a8 8 0 0 1-1.7-1.53c-1.45-2.14.34-3.27 2.38-2.85 2.47.51 4.91 2.14 7 3.5C390.23 90.58 392 87.3 390 86c-3.11-2-6.86-4.3-10.72-4.17-3.07.1-5.29 2.06-5.09 5.31.2 3.25 3 5.23 5.39 7 4.09 3 8.26 5.93 12.45 8.8 2 1.37 3.87-1.88 1.89-3.24l.02-.04z"/><path d="M391.41 86.75l-3.22-7.1c-.67-1.47-4.3-7.78-3.09-9.45 1.21-1.67 3.71.39 4.46 1.13a14.23 14.23 0 0 1 2.27 3.21 81.32 81.32 0 0 1 4 8.74c.91 2.2 4.54 1.23 3.62-1-1.77-4.28-3.44-9-6.4-12.65-1.9-2.33-5.84-5.28-9.11-4-7.51 3 2.36 18.86 4.23 23 1 2.19 4.23.29 3.24-1.89v.01z"/><path d="M391.42 68.06c-.64-1 .47-2.15 1.25-2.64 1.39-.89 2.43-.42 3.4.73a32.08 32.08 0 0 1 2.78 4.28c1.67 2.84 3.81 5.87 5.08 8.89.92 2.19 4.55 1.23 3.62-1-1.31-3.11-3.33-5.92-4.95-8.88-1.31-2.39-3.21-6.39-5.8-7.67-4.8-2.35-11.8 3.16-8.62 8.23 1.28 2 4.53.16 3.24-1.89v-.05z"/><path d="M400.45 65.22c.1-4.24 3-2.37 4.21-1.42a12.57 12.57 0 0 1 2.52 3.2 47.19 47.19 0 0 1 4.09 8.12c2.54 6.34 2.84 12.42 2 19.23-.29 2.39 3.46 2.37 3.75 0a42.41 42.41 0 0 0-6.34-28.81c-1.58-2.53-3.85-6-7.05-6.52-3.65-.63-6.85 2.79-6.93 6.21-.06 2.41 3.69 2.41 3.75 0v-.01zM311 120.68h66.46a1.88 1.88 0 0 0 0-3.75H311a1.88 1.88 0 0 0 0 3.75z"/><path d="M311 118.81c.69-8.07 4.18-17.53 20.39-17.53 8 0 17.18 7 18.07 16.14"/><path d="M312.9 118.81c.71-7.27 4.22-13.15 11.71-14.94 10.41-2.49 21.45 2.77 23.07 14 .34 2.38 4 1.37 3.62-1-1.83-12.74-14.51-19.25-26.39-16.94-9.86 1.91-14.82 9.26-15.76 18.83-.23 2.4 3.52 2.38 3.75 0v.05zM349.93 134.1c1.61 5.42-1 10.41-5.35 13.62-1.93 1.41-.06 4.67 1.89 3.24 5.73-4.2 9.19-10.73 7.07-17.86-.69-2.31-4.31-1.32-3.62 1h.01z"/><path d="M349 122.14c4 2.33 8.32 4.45 12 7.26v-3.24a162.026 162.026 0 0 1-9.32 5.41c-2.13 1.14-.24 4.38 1.89 3.24 3.167-1.7 6.273-3.503 9.32-5.41a1.9 1.9 0 0 0 0-3.24c-3.71-2.8-8-4.93-12-7.26-2.09-1.21-4 2-1.89 3.24zM337.55 120.61c.172.967.266 1.947.28 2.93v1.15c.227-.727.083-.973-.43-.74-.6-.18-2.06.39-2.69.49-.63.1-1.4.18-2.09.32-3 .58-4.71 2.2-6 5-1 2.18 2.25 4.09 3.24 1.89a4.88 4.88 0 0 1 4.37-3.34 33.74 33.74 0 0 0 5.27-.94c3.12-1 2.07-5.23 1.64-7.71-.43-2.48-4-1.37-3.62 1l.03-.05zM344.37 125.77v.9a1.88 1.88 0 1 0 3.75 0v-.9a1.88 1.88 0 0 0-3.75 0z"/><path d="M314.42 151.31c-5.51.34-11 .92-16.47 1.4-6.39.56-13.18.69-18.1-4.11-10.31-10.06-5.81-27 3.15-36.2 6.15-6.3 13.94-2.42 19.47 2.54a120.21 120.21 0 0 0 13.29 10.32c5 3.35 10.35 6.25 15.14 9.87 5.55 4.18 9.15 10.37 13 16 1.36 2 4.61.1 3.24-1.89-4.29-6.21-8.22-12.81-14.39-17.35-6.47-4.77-13.62-8.55-20.09-13.33-6.28-4.63-11-10.67-18.79-12.75-7.11-1.89-11 1-15.69 6.1-8.81 9.41-11.17 26.63-3 37.1 9.35 12 26.25 6.86 39.21 6.06 2.4-.15 2.41-3.9 0-3.75l.03-.01z"/><path d="M347.14 150c-8.14.08-16.267.363-24.38.85-2.4.14-2.41 3.89 0 3.75 8.12-.487 16.247-.77 24.38-.85 2.41 0 2.42-3.77 0-3.75zM306.93 184.86c3.22 3 3.4 6.67 1.91 10.62-.85 2.26 2.77 3.24 3.62 1 1.94-5.15 1.23-10.42-2.87-14.27-1.76-1.65-4.42 1-2.65 2.65h-.01zM288.94 211.08a48.45 48.45 0 0 0 13.65-3.18c2.79-1 6.7-2.07 8.54-4.59 1.42-2-1.83-3.83-3.24-1.89-1.41 1.94-6.17 2.85-8.18 3.51a42.18 42.18 0 0 1-10.77 2.4c-2.4.12-2.42 3.88 0 3.75zM226.05 162.86c-4.973 4.18-9.923 8.387-14.85 12.62-5 4.28-10.49 8.38-14.88 13.31-7.86 8.82-.6 17.43 7.24 22.84 2 1.37 3.87-1.87 1.89-3.24-4.56-3.15-11.29-8.23-8.14-14.69 2-4.1 7.06-7.44 10.44-10.34 6.953-6 13.933-11.95 20.94-17.85 1.85-1.56-.82-4.2-2.65-2.65h.01zM269.93 127.78c-12.61 9.37-24.79 19.25-36.83 29.35-1.85 1.55.81 4.19 2.65 2.65 11.79-9.9 23.71-19.58 36.07-28.76 1.91-1.42 0-4.68-1.89-3.24z"/><path d="M168.78 139.22c27.37-25.15 68.78-22 101.73-12.19 2.32.69 3.31-2.93 1-3.62-34.32-10.21-77-12.94-105.38 13.16-1.78 1.64.88 4.28 2.65 2.65zM137.84 183.16c1.55-8.09 6.36-14.52 10.82-21.24A89.8 89.8 0 0 1 161.53 146c1.75-1.67-.9-4.32-2.65-2.65A94.08 94.08 0 0 0 145.43 160c-4.64 7-9.59 13.74-11.2 22.13-.45 2.36 3.16 3.37 3.62 1l-.01.03z"/><path d="M134.95 185.32a410.89 410.89 0 0 0 20.89 11.55 1.9 1.9 0 0 0 2.57-.67c5.9-11.85 14.41-22.53 26.06-29.15a45.31 45.31 0 0 1 42-1.24c2.16 1.06 4.06-2.18 1.89-3.24a49.23 49.23 0 0 0-43-.2c-13.5 6.6-23.53 18.69-30.13 31.94l2.57-.67a410.89 410.89 0 0 1-20.89-11.55c-2.08-1.23-4 2-1.89 3.24l-.07-.01z"/><path d="M143.35 167.43l21.89 12.49c2.1 1.2 4-2 1.89-3.24l-21.89-12.49c-2.1-1.2-4 2-1.89 3.24z"/><path d="M151.68 192.2l10.14-15.26c1.34-2-1.91-3.9-3.24-1.89l-10.14 15.26c-1.34 2 1.91 3.9 3.24 1.89zM144.15 186.67c3-5.12 6.14-10.1 9.27-15.11 1.28-2.05-2-3.94-3.24-1.89-3.13 5-6.31 10-9.27 15.11-1.21 2.09 2 4 3.24 1.89zM145.31 205.46c.72 3.82 3.77 22.75 11.3 16 3-2.67 2.78-7.57 2.38-11.16-.33-2.91-.93-5.7-.77-8.64.13-2.47.37-4.47-.46-6.83-.83-2.36-4.42-1.29-3.62 1 1 2.75.16 5.37.28 8.2.12 2.83.9 5.43 1 8.17 0 1 .36 3.74-.3 4.4-2.86 2.91-3.68-1.67-4.15-3.11a72.75 72.75 0 0 1-2.08-9c-.45-2.37-4.06-1.37-3.62 1l.04-.03z"/><path d="M145.25 205.15c-1.94 6.41-4.08 13.71-7.86 19.3-1 1.47-2.44 3.47-3.83 1.79-1.39-1.68-.17-4.61.42-6.25 1.28-3.58 3.26-7.05 4.88-10.49 1-2.17-2.21-4.08-3.24-1.89-2.28 4.82-6.53 10.84-6.33 16.37.11 2.89 1.32 6.95 4.76 7.15 3.74.22 6.32-4.15 7.76-7a107.63 107.63 0 0 0 7.05-18c.7-2.31-2.92-3.3-3.62-1l.01.02z"/><path d="M129.76 220.44c-1.19 2.85-5.46 5.07-5.28.27a16.62 16.62 0 0 1 1.72-5.92 62.47 62.47 0 0 1 5.94-9.89c1.37-2-1.88-3.87-3.24-1.89-3.73 5.43-10.89 14.86-7.45 21.95 3.11 6.4 10.14.73 11.92-3.52.93-2.22-2.7-3.19-3.62-1h.01z"/><path d="M122.08 215c-.64 1.35-3.92 5.54-5.72 2.39-.37-.65.57-2.69.82-3.43a54.3 54.3 0 0 1 3.82-8.56c4.1-7.52 10.12-13.72 15.33-20.45 1.46-1.88-1.17-4.56-2.65-2.65-7.74 10-17 19.34-20.51 31.83-.89 3.15-.81 6.33 2.78 7.56 4.32 1.48 7.58-1 9.33-4.75 1-2.17-2.21-4.08-3.24-1.89l.04-.05zM287.34 210.16a26.15 26.15 0 0 1 .48 8.33c-.25 2.4 3.5 2.38 3.75 0a29.3 29.3 0 0 0-.61-9.32c-.54-2.35-4.16-1.36-3.62 1v-.01z"/><path d="M289.47 217.68h-83.3a1.88 1.88 0 0 0 0 3.75h83.3a1.88 1.88 0 0 0 0-3.75z"/><path d="M202.44 211.06c0 2-.07 4 0 5.93a4.13 4.13 0 0 0 1.72 3.64c2 1.38 3.86-1.87 1.89-3.24.43.3.16.07.13-.4v-5.92a1.88 1.88 0 0 0-3.75 0l.01-.01z"/><path d="M205.11 211.08h83.83a1.88 1.88 0 0 0 0-3.75h-83.83a1.88 1.88 0 0 0 0 3.75z"/><path d="M209.21 210.8v6.76a1.88 1.88 0 0 0 3.75 0v-6.76a1.88 1.88 0 0 0-3.75 0zM217.16 210.8v7.2a1.88 1.88 0 0 0 3.75 0v-7.2a1.88 1.88 0 0 0-3.75 0zM225 210v7.83a1.88 1.88 0 0 0 3.75 0V210a1.88 1.88 0 0 0-3.75 0zM232.55 210.67v7.39a1.88 1.88 0 0 0 3.75 0v-.36a1.88 1.88 0 0 0-3.75 0v.36a1.88 1.88 0 0 0 3.75 0v-7.39a1.88 1.88 0 0 0-3.75 0zM240.38 210.53v7.3a1.88 1.88 0 0 0 3.75 0v-7.3a1.88 1.88 0 0 0-3.75 0zM248.07 210.4v7a1.88 1.88 0 0 0 3.75 0v-7a1.88 1.88 0 0 0-3.75 0zM256.83 210v7.69a1.88 1.88 0 0 0 3.75 0V210a1.88 1.88 0 0 0-3.75 0zM264.78 210.67v7.16a1.88 1.88 0 0 0 3.75 0v-7.16a1.88 1.88 0 0 0-3.75 0zM272.61 210.53v7.56a1.88 1.88 0 0 0 3.75 0v-7.56a1.88 1.88 0 0 0-3.75 0zM279.51 210.53v7.16a1.88 1.88 0 0 0 3.75 0v-7.16a1.88 1.88 0 0 0-3.75 0zM316.53 339.38c2.43 0 6.68-.61 7.74 1.76 1.65 3.69-4.5 7.73-6.4 10.09-3 3.77-2.26 7.7 1.17 10.81 10.32 9.35 34.31 3.4 35.57 21.81.4 5.82-3.54 7.84-8.5 9.07-4.35 1.08-8.85 2.09-13.36 1.78-4.81-.33-9.53-2-14.31-2.61a71.6 71.6 0 0 0-11.45-.64c-8.17.21-15.86 2-23.63 4.46-7.26 2.26-20.26 4.76-22.42-5.7-1.86-9 8.28-18 12-25.53a73.8 73.8 0 0 0 4.4-11.68c1.56-5.29 3.17-11.35 9.22-12.89 2.34-.59 1.35-4.21-1-3.62-8.87 2.25-10.34 11.27-12.84 18.78a63 63 0 0 1-7.35 15c-2.77 4.17-6.06 8.08-7.57 12.94-2.18 7 .25 14 7.07 17.08 8.46 3.8 17.21-.29 25.46-2.57 12.21-3.38 24-2.75 36.26-.21 8.29 1.72 18.37 1.14 26.08-2.77 6.66-3.38 6.84-11.26 4-17.42-3.79-8.26-11.26-10.73-19.62-12.14-4.57-.78-13.15-2.09-15.95-6.23-3.12-4.63.67-5.88 3.15-8.61a17 17 0 0 0 3.29-5.64c3.06-8.37-4.62-9-11-9a1.88 1.88 0 0 0 0 3.75l-.01-.07z"/><path d="M258.51 391c8.1 2.73 16 2.46 24.09-.1 9-2.83 17.64-5.21 27.12-5.63 9.07-.4 17.64 1.54 26.6 2.28 6.81.57 13.39-.53 18.67-5.11 1.83-1.58-.84-4.23-2.65-2.65-7 6.06-16.39 4-24.69 2.77a91.47 91.47 0 0 0-21.6-.8 93.2 93.2 0 0 0-21.08 4.4c-8.76 2.88-16.47 4.26-25.46 1.23-2.29-.77-3.28 2.85-1 3.62V391zM328 366.26c-.45 2.2-1.51 4.25-1.8 6.48l.55-1.33h2.65l-.13-.14c-1.59-1.82-4.24.84-2.65 2.65l.13.14a1.93 1.93 0 0 0 2.65 0c.238-.23.41-.52.5-.84-.18.65.22-1.08.06-.43.16-.68.43-1.34.61-2 .33-1.19.81-2.33 1.06-3.54.48-2.36-3.13-3.36-3.62-1l-.01.01zM334.27 367.86l-1.33 5.84c-.53 2.35 3.08 3.35 3.62 1l1.33-5.84c.53-2.35-3.08-3.35-3.62-1zM340.41 368.94l-1.23 5.86c-.49 2.35 3.12 3.36 3.62 1l1.23-5.86c.49-2.35-3.12-3.36-3.62-1zM179.48 259.73c-3.47 6.22-10 16.41-10.48 18-5.63-3.68-12.62-6.77-18.41-10-11 7.94-19.52 14.68-30.77 22 1.69 1.11 4.31 3.68 5.84 4.69 12.3 8.1 37.85 24.19 46 25.22 12.76 1.62 30.95-16.51 38.89-26.54-10.69-10.72-20.04-23.52-31.07-33.37z"/><path d="M177.86 258.78c-3.42 6.07-8.05 11.94-10.67 18.41l2.75-1.12c-5.91-3.74-12.27-6.63-18.41-10a1.86 1.86 0 0 0-1.89 0c-10.22 7.39-20.22 15.08-30.77 22a1.9 1.9 0 0 0 0 3.24c8 5.82 16 11.35 24.53 16.49 7.77 4.68 15.86 9.83 24.5 12.77 7.81 2.65 15.59-1 22-5.41a101.92 101.92 0 0 0 21.91-20.78 1.92 1.92 0 0 0 0-2.65c-10.66-10.84-19.77-23.13-31-33.37-1.78-1.62-4.44 1-2.65 2.65 11.28 10.24 20.39 22.53 31 33.37v-2.65a100.24 100.24 0 0 1-20.59 19.81c-7.21 5-14.24 7.89-22.57 4.28-16.21-7-31.07-17.45-45.28-27.75v3.24c8-5.22 15.6-10.87 23.26-16.51 1.46-1.08 4.21-4 6-4.36 2.08-.41 3.86 1.08 5.76 2.05 4.18 2.13 8.35 4.26 12.32 6.77a1.9 1.9 0 0 0 2.75-1.12c2.48-6.12 7-11.76 10.29-17.51 1.18-2.06-2.1-3.95-3.24-1.85zM26.89 281.16c6.4 3.76 14.59 2.75 21.15-.16a32 32 0 0 0 9-6.22c4.16-3.95 9.07-9.07 15.3-5.76 5.91 3.14 8.79 12.76 16.39 13.28 6.41.44 7.8-7.72 8-12.47.09-2.41-3.66-2.41-3.75 0-.06 1.7.05 3.93-.81 5.48-2.08 3.72-5 2.79-7.82.41a51.37 51.37 0 0 1-5.53-6c-3.33-3.81-7.9-6.26-13.07-5.25-5.6 1.1-8.91 5.8-13 9.26-6.18 5.18-16.49 8.6-23.94 4.23a1.88 1.88 0 0 0-1.89 3.24l-.03-.04zM114.9 250.36c-.94-3.38-2.06-6.7-4.88-9-3.33-2.68-7.95-3.37-11.64-5.39a25.31 25.31 0 0 1-10.75-10.62c-1.79-3.61-3.14-7.05-6.37-9.64-1.87-1.49-4.54 1.14-2.65 2.65 3.44 2.75 4.34 6.48 6.42 10.14a26.63 26.63 0 0 0 6.58 7.42 34.16 34.16 0 0 0 9 5.18c5.69 2.25 9 3.93 10.71 10.22.65 2.32 4.27 1.34 3.62-1l-.04.04z"/><path d="M88.48 231.88c-2.08 5.71-4 11.85-1.61 17.79 2.18 5.54 7.09 9.71 11.81 13.08 2 1.4 3.84-1.85 1.89-3.24-3.79-2.7-7.86-6.09-9.88-10.39-2.51-5.37-.48-11 1.41-16.24.83-2.27-2.8-3.25-3.62-1zM29.62 278c.95-6 2.89-12.11 7-16.66 2.57-2.86 5.84-5 8.93-7.26a82 82 0 0 0 12-10.88 38.56 38.56 0 0 0 5.07-6.77c1.55-2.74 2.57-5.76 4.16-8.47 2.91-5 6.76-8.43 12.26-10.09l1.18-.57c-2.84-2-5.12-3.57-8.44-3.37a17.76 17.76 0 0 0-10.59 5.15c-2.27 2.6-3.87 5.71-5.66 8.66a75.35 75.35 0 0 1-12.7 15.76c-3.89 3.68-8.18 6.95-11.82 10.88-3.64 3.93-6.67 8.69-7.31 14-.45 3.69.42 7.73 3.12 10.28.34.32.705.615 1.09.88"/><path d="M31.43 278.48c1.41-8.13 4.36-14.76 11-19.88 5.54-4.24 11-8.26 15.72-13.43 4.4-4.78 6.67-10 9.76-15.59 3.19-5.8 7.47-7.91 13.14-10.68 1.37-.67 1.06-2.5 0-3.24-6.43-4.51-13.09-4.56-19.44.39-3.53 2.76-5.52 7-7.8 10.72a75 75 0 0 1-10 13c-6.61 6.84-15.25 12.14-19.66 20.84-3.35 6.6-3.91 15.2 2.33 20.24 1.86 1.5 4.53-1.13 2.65-2.65-7.4-6-2.5-16.17 2.57-21.92 4.84-5.5 11-9.7 15.92-15.09a94.43 94.43 0 0 0 11.19-15.51c2-3.31 3.93-6.3 7.44-8.17 4.92-2.61 8.53-1.7 12.92 1.38v-3.24c-5 2.46-9.15 4.26-12.57 9-2.12 2.93-3.32 6.24-5 9.43a41.84 41.84 0 0 1-7.36 9.75c-5.46 5.67-12.34 9.52-17.9 15-5.1 5-7.4 11.76-8.59 18.67-.41 2.36 3.2 3.37 3.62 1l.06-.02z"/><path d="M56.91 245.55a32.71 32.71 0 0 0 31-3.26c2-1.35.11-4.6-1.89-3.24a29.3 29.3 0 0 1-28.16 2.88c-2.23-.92-3.2 2.71-1 3.62h.05zM58.65 260.83a33.36 33.36 0 0 1 3 5.92c.85 2.23 4.48 1.26 3.62-1a38.23 38.23 0 0 0-3.37-6.81c-1.28-2-4.53-.16-3.24 1.89h-.01zM51.43 264.64a121.685 121.685 0 0 1 3.76 7.07c1.07 2.16 4.31.26 3.24-1.89a140.505 140.505 0 0 0-3.76-7.07c-1.2-2.1-4.44-.21-3.24 1.89zM44.91 269.39A213.674 213.674 0 0 1 49 276.1c1.19 2.1 4.43.21 3.24-1.89a124.72 124.72 0 0 0-4.07-6.71c-1.31-2-4.56-.14-3.24 1.89h-.02zM95.27 266.07c-6.1-6.21-18-9.7-23.68-1.06-1.32 2 1.92 3.91 3.24 1.89 4.26-6.52 13.55-2.5 17.79 1.82 1.69 1.73 4.34-.93 2.65-2.65zM95.46 238.18a23 23 0 0 0 9.86 19.5c2 1.4 3.84-1.85 1.89-3.24a19.12 19.12 0 0 1-8-16.26c.06-2.41-3.69-2.41-3.75 0zM41.56 201.68a7.74 7.74 0 0 0-.74 12.24 8.64 8.64 0 0 0 7 1.88 10.76 10.76 0 0 0 6.33-3.66 8.37 8.37 0 0 0 1.51-2.44c1.2-3.14-.44-7-3.34-8.68a10.15 10.15 0 0 0-9.67 0"/><path d="M40.23 200.35a9.7 9.7 0 0 0-1.6 14c3.82 4.44 10.47 4.26 14.9.89 4-3 5.7-8.08 3-12.58-3.18-5.25-9.74-5.53-14.82-3.22-2.19 1-.29 4.23 1.89 3.24 3.27-1.49 7.57-1.43 9.69 1.88 2 3.06.25 6.26-2.49 8.08-6.81 4.54-15-4-7.89-9.62 1.9-1.49-.77-4.12-2.65-2.65l-.03-.02zM20.72 221.86a10.1 10.1 0 0 0-3.9 6.65 9.09 9.09 0 0 0 .94 6.25C19.2 237 22 238 24.6 238a11 11 0 0 0 7.69-2.82 7.14 7.14 0 0 0 2-3.21c.63-2.27-.2-4.7-1.31-6.78A9.22 9.22 0 0 0 29.2 221a11.17 11.17 0 0 0-3.8-.83 9.56 9.56 0 0 0-4.68 1.69"/><path d="M19.4 220.54c-4.15 3.68-6.53 10.63-3 15.55 3.53 4.92 11 4.71 15.56 1.69 5.58-3.68 5.13-10.12 1.62-15.18-3.25-4.68-9.21-5.36-13.85-2.35-2 1.31-.14 4.56 1.89 3.24 2.73-1.77 6.08-2 8.42.62 3.17 3.53 3.53 8.8-1.13 11.07-3.1 1.51-8 1.5-9.74-1.92-1.86-3.58.08-7.64 2.83-10.07 1.81-1.6-.85-4.25-2.65-2.65h.05zM5.91 243.85a7.72 7.72 0 0 0-3.41 4.69 9.21 9.21 0 0 0-.44 4c.5 3.66 4.3 6.4 8 6.12a9.44 9.44 0 0 0 8-6.75 6.24 6.24 0 0 0 .27-2.67A6.53 6.53 0 0 0 17 246.3a9.07 9.07 0 0 0-5.47-3.66 6.09 6.09 0 0 0-5.57 1.2"/><path d="M5 242.23c-4.46 2.94-6.47 9.72-3.22 14.27a9.75 9.75 0 0 0 13.11 2.41c4.55-2.86 7-8.88 3.72-13.54-3.12-4.45-9-6.21-13.61-3.13-2 1.33-.12 4.58 1.89 3.24 2.81-1.87 5.95-1.12 8.16 1.42 2.55 2.93 1 6.66-1.88 8.64a6 6 0 0 1-7.9-.66c-2.48-2.69-1.28-7.49 1.62-9.4 2-1.32.13-4.57-1.89-3.24v-.01zM47.37 217.3a123 123 0 0 1-.16 17.1c-.19 2.41 3.56 2.39 3.75 0a123 123 0 0 0 .16-17.1c-.14-2.4-3.9-2.41-3.75 0z"/><path d="M34 236.38c5.113 0 10.22-.147 15.32-.44 2.4-.15 2.41-3.9 0-3.75-5.107.313-10.213.46-15.32.44-2.41 0-2.42 3.74 0 3.75z"/><path d="M31.71 235.2c.34 5.23.377 10.476.11 15.71-.12 2.41 3.63 2.41 3.75 0 .267-5.234.23-10.48-.11-15.71-.16-2.4-3.91-2.41-3.75 0z"/><path d="M18.89 254.41a77.94 77.94 0 0 0 16-2.78c2.32-.66 1.33-4.28-1-3.62a73.07 73.07 0 0 1-15 2.65c-2.39.16-2.41 3.92 0 3.75zM112.69 250.09l-1.09-.09L96 263.51a5.2 5.2 0 0 0-1.5 1.77c-1 2.26 1.55 2.33.56 6.76L95 273c10.42 7.36 24.1 16.29 35 23.41 11.25-7.32 21.61-14.31 32.62-22.25a495 495 0 0 0-49.93-24.07z"/><path d="M112.69 248.22c-2.88-.36-4.64 2.34-6.67 4.11-3.31 2.88-6.65 5.72-9.94 8.63-1.79 1.58-3.83 3.08-3.65 5.72.122.515.272 1.022.45 1.52.24 1.37 0 3 .26 4.31.49 2.14 1.55 2.55 3.46 3.88 3.68 2.56 7.387 5.083 11.12 7.57 7.06 4.73 14.17 9.38 21.28 14a1.84 1.84 0 0 0 1.89 0c11-7.19 21.93-14.56 32.62-22.25a1.9 1.9 0 0 0 0-3.24 522.93 522.93 0 0 0-50.32-24.24c-2.23-.93-3.2 2.7-1 3.62a514 514 0 0 1 49.42 23.86v-3.24a805.027 805.027 0 0 1-24.72 17.06c-1.58 1-4.46 3.88-6.3 4.15-1.84.27-3.57-1.49-5.11-2.5a1547.477 1547.477 0 0 1-12.24-8.07c-3.82-2.54-7.623-5.103-11.41-7.69-1-.67-4.42-2.37-4.8-3.09-.17-.33.16-2.28 0-3.19-.21-1.5-.76-1.86-.23-3.32.78-2.14 3.73-3.87 5.43-5.35l5.77-4.87c1-.91 3.34-3.8 4.73-3.63 2.35.3 2.33-3.46-.04-3.75zM357.3 253.6c-3-7-13.12-11.54-19.61-15.41-6.49-3.87-41-16.52-48.22-18.64l-85.32.37c-2.61 1.81-4.41 4.55-6.06 7.26-6.81 11.16-14.45 21.93-19.21 34 11 9.85 21 21.17 31.65 31.9l.49-.6c9.46-12.25 24.22-35 25.49-37.24 21.38 6.62 58 18.29 80.1 21.53-9.22 20.17-24.36 39.37-30.14 60.79l-.43 1.5a816.377 816.377 0 0 1 30.5-1.57l2.4-.51a467.6 467.6 0 0 1 26.12-40.1 118.42 118.42 0 0 0 9-13.33c1.34-2.5 3.05-5.22 3.78-8 .68-2.57 1.4-2.62 1.49-5.28.17-6.27.44-10.88-2.03-16.67z"/><path d="M358.92 252.65c-4-8.11-13.9-12.81-21.55-16.78-6.28-3.26-13.09-5.68-19.68-8.21-7.77-3-15.57-5.88-23.45-8.55a22 22 0 0 0-8-1.43l-76.48.33c-4.86 0-6.86-.38-10.31 3.86-4.41 5.42-7.82 12-11.48 18a141.66 141.66 0 0 0-10.88 20.85 1.82 1.82 0 0 0 .48 1.82c11.13 10 21.11 21.25 31.65 31.9a1.89 1.89 0 0 0 2.65 0 315.77 315.77 0 0 0 26.27-38.22l-2.12.86c26.27 8.14 52.83 17.41 80.1 21.53l-1.12-2.77c-9.87 21.24-24.25 40-30.75 62.73a1.89 1.89 0 0 0 1.81 2.37c6.667-.46 13.333-.847 20-1.16 3.86-.18 9.79.82 13.39-1 1.48-.74 2-2.39 2.83-3.78 1.64-2.773 3.307-5.53 5-8.27a439.277 439.277 0 0 1 10.35-16c11.51-17.09 30.23-35.27 21.49-57.61-.87-2.22-4.5-1.26-3.62 1 3.89 9.95 2 19.48-3.1 28.51-5.2 9.22-12.1 17.44-18 26.21a471.312 471.312 0 0 0-8.44 13 590.649 590.649 0 0 0-4.24 6.86c-1 1.67-2.23 5-3.6 6.27-1.13 1.07-3.74.77-5.39.84-2.86.113-5.72.237-8.58.37-6.04.293-12.073.65-18.1 1.07l1.81 2.37c6.41-22.44 20.64-40.9 30.38-61.84.45-1 .18-2.56-1.12-2.75-27.27-4.12-53.83-13.39-80.1-21.53a1.9 1.9 0 0 0-2.12.86 309.46 309.46 0 0 1-25.68 37.46h2.65c-5.3-5.36-10.46-10.85-15.69-16.28-2.59-2.69-5.2-5.37-7.86-8a165.779 165.779 0 0 0-4-3.87c-2.22-2.09-3.17-2.4-2.06-5.56 2.19-6.26 6.42-12.25 9.9-17.85 1.89-3 3.82-6 5.7-9.07 1.4-2.25 4-8.21 6.37-9.15 1.93-.77 6-.24 8.44-.25l19.44-.08 44.8-.19c3.88 0 8-.45 11.85-.05 4.33.45 9.54 3 13.84 4.59 9.51 3.44 19 6.94 28.33 11a97.84 97.84 0 0 1 9.15 4.7c5.8 3.28 12.57 6.58 15.63 12.84 1.03 2.12 4.29.22 3.21-1.95z"/><path d="M298.64 338.34c-1.74 6.14-2.92 11.58-8.72 15.2a27.91 27.91 0 0 1-7.5 3.09c-2 .54-5.71 2.07-7.7 1.49l.83 3.13.17-.17h-2.65l.12.12c1.68 1.74 4.33-.91 2.65-2.65l-.12-.12a1.9 1.9 0 0 0-2.65 0l-.17.17a1.9 1.9 0 0 0 .83 3.13c2.83.82 6.94-.73 9.69-1.49a31.47 31.47 0 0 0 9-3.85c6.33-4.16 7.85-10.11 9.82-17.05.66-2.33-3-3.32-3.62-1h.02z"/><path d="M289.79 339c-2.43 5.46-5.69 10-12.25 9.76-2.41-.07-2.41 3.68 0 3.75 7.85.23 12.51-4.94 15.49-11.62 1-2.19-2.26-4.1-3.24-1.89zM273.32 362.46c5.44.85 10.61 3.83 14.73 7.45 4.12 3.62 5 8.81 5.73 14.06.32 2.38 3.94 1.37 3.62-1-.8-5.92-2-11.62-6.7-15.71-4.7-4.09-10.28-7.46-16.38-8.41-2.36-.37-3.38 3.24-1 3.62v-.01zM271.11 410.51a10.07 10.07 0 0 0 2.64 15.82 9.34 9.34 0 0 0 5.6 1 9.75 9.75 0 0 0 4.57-2 10.85 10.85 0 0 0 4.07-9.93 10 10 0 0 0-7-8c-3.61-1-7.8 0-9.9 3.11"/><path d="M269.78 409.19c-4.28 5.13-4.41 12.49.74 17.16a11.43 11.43 0 0 0 16.48-1.42 12.22 12.22 0 0 0-.82-16.66c-4.62-4.38-12.42-4.09-16.41.92-1.49 1.87 1.15 4.54 2.65 2.65 6.22-7.83 17.42 1.47 12.45 9.63-6.08 10-19.73-.91-12.45-9.63 1.54-1.84-1.1-4.51-2.65-2.65h.01zM305.42 406.64c-2.56 1.14-4.17 3.73-5.14 6.35-.97 2.62-1.41 5.43-.44 8a8.77 8.77 0 0 0 7.8 5.3 12.29 12.29 0 0 0 12.08-11 8.65 8.65 0 0 0-2.86-7.1 11 11 0 0 0-5.39-2.2c-2.68-.43-5.71-.19-7.65 1.71"/><path d="M304.47 405c-5.67 3.11-9.13 12-5.78 17.89 3.46 6.09 11.58 6.43 16.87 2.72 5.29-3.71 8.14-11.52 4.05-17.17-3.75-5.18-12.26-6-17.12-2.12-1.88 1.51.79 4.15 2.65 2.65 3.68-3 10.83-1.07 12.35 3.4 1.4 4.13-1.32 8.62-4.87 10.69-3.55 2.07-8.54 1.77-10.69-2.06-2.33-4.16.59-10.65 4.44-12.76 2.12-1.16.23-4.4-1.89-3.24h-.01zM333.21 409.48a13.16 13.16 0 0 0-1.93 7.09 7.91 7.91 0 0 0 3.43 6.3 8.36 8.36 0 0 0 3.13 1.11 10.8 10.8 0 0 0 10.16-3.84 9.12 9.12 0 0 0 .3-10.61 10.25 10.25 0 0 0-5.32-3.58 9.73 9.73 0 0 0-6.13 0 6.31 6.31 0 0 0-4.07 4.39"/><path d="M331.59 408.53c-2.88 5.48-3.41 13.37 3.16 16.46a12.53 12.53 0 0 0 15.42-4.77 10.78 10.78 0 0 0-3.78-14.8c-5.51-3.24-13.29-2.26-15.45 4.38-.75 2.3 2.87 3.29 3.62 1 2.82-8.7 19.27.43 11.42 8.79a9 9 0 0 1-8.73 2.34c-5.38-1.58-4.41-7.71-2.42-11.51 1.12-2.14-2.12-4-3.24-1.89zM285.21 408.94L299 397.32h-2.65a567.834 567.834 0 0 1 8.7 8.77c1.68 1.74 4.33-.92 2.65-2.65a567.834 567.834 0 0 0-8.7-8.77 1.92 1.92 0 0 0-2.65 0l-13.83 11.62c-1.85 1.55.81 4.2 2.65 2.65h.04z"/><path d="M310.09 404.77l10.63-8.66c1.87-1.52-.8-4.16-2.65-2.65l-10.63 8.66c-1.87 1.52.8 4.16 2.65 2.65z"/><path d="M319.49 397.77c2.6.87 4.86 2.8 7.1 4.33l3.49 2.37c.84.57 2.89 1.45 3.45 2.24l.29-2.27-.09.07h2.65l-.07-.06c-1.85-1.52-4.52 1.12-2.65 2.65l.07.06a2 2 0 0 0 2.65 0l.09-.07a1.87 1.87 0 0 0 .29-2.27c-1.68-2.36-5.4-4-7.78-5.62-2.72-1.85-5.35-4-8.5-5-2.29-.77-3.28 2.85-1 3.62l.01-.05zM315.16 337.94c-2.34 4.72-6 8.65-5.57 14.31.41 4.85 4.37 8.22 8.9 9.22 2.35.52 3.36-3.1 1-3.62-4.9-1.08-7.29-5.16-5.52-10.12 1-2.77 3.11-5.25 4.42-7.9 1.07-2.16-2.16-4.06-3.24-1.89h.01zM138.65 200.6c2.947 1.793 5.8 3.723 8.56 5.79 1.93 1.45 3.8-1.81 1.89-3.24a104.146 104.146 0 0 0-8.56-5.79c-2.07-1.26-4 2-1.89 3.24z"/><path d="M263 397.05c4.13.82 8.304 1.408 12.5 1.76 1.91.16 2.47-2.61.95-3.49-4.29-2.49-10-2.44-13.67-5.84l-1.82 3.13a63.43 63.43 0 0 1 8 3.59l1.44-3.43a55.18 55.18 0 0 1-6.93-2.47l-.95 3.49c12.37.6 24.3-2.34 36.17-5.45 2.37-.62 1.34-4-1-3.62l-22.19 3.88c-2.4.42-1.34 3.94 1 3.62l25.95-3.62-1-3.62-27 7.34c-2.35.64-1.35 4.07 1 3.62l21.65-4.22-1-3.62-23.73 5.06 1 3.62a153.25 153.25 0 0 1 24-5.19l-.5-3.68a158.06 158.06 0 0 1-24.58 6.44c-2.06.37-1.61 3.92.5 3.68a127.33 127.33 0 0 0 25.43-5.5 1.88 1.88 0 0 0-1-3.62 149.53 149.53 0 0 0-24.08 5.54c-2.29.73-1.34 4.26 1 3.62a689.06 689.06 0 0 1 42.83-10.35l-1-3.62a115.68 115.68 0 0 1-22.27 3.49c-2.38.19-2.45 3.72 0 3.75 9.827.107 19.65.047 29.47-.18v-3.75c-8.947.353-17.89.29-26.83-.19V391c8.1-.82 19.28-3 27.08-.12v-3.62a53.24 53.24 0 0 1-23.33-.73l-.5 3.68a79.48 79.48 0 0 1 26.36 1.1l.5-3.68a81 81 0 0 1-27.9-1.94v3.62c9.45-1.56 18.9-2.9 28.13.41l.5-3.68a116 116 0 0 1-25.76-1.04l-.5 3.68c7.78 0 15.5 0 23.13 1.72l.5-3.68a462.094 462.094 0 0 0-34 2.32c-2.34.25-2.47 3.77 0 3.75a130.73 130.73 0 0 0 19.64-1.7c2.1-.34 1.59-3.76-.5-3.68a92.27 92.27 0 0 0-16.31 2c-2 .44-1.62 3.83.5 3.68 13.18-.92 26.36-1.76 39.58-.95v-3.75a184.46 184.46 0 0 1-20.32-.6c-2.43-.21-2.34 3.46 0 3.75A135.53 135.53 0 0 0 342 392c2.36-.21 2.46-3.73 0-3.75l-21.65-.25v3.75l19.13-.5a1.88 1.88 0 0 0 0-3.75c-3.56-.14-13.72.73-15.81-2.72l-1.67 2.86a92.26 92.26 0 0 1 18.17 2.67l.5-3.68a284.125 284.125 0 0 0-24.42.67 1.88 1.88 0 0 0 0 3.75 68.22 68.22 0 0 1 12.58 2.87l1-3.62-11.21-1.67c-1.45-.22-3.14 1.25-2.12 2.75 3.6 5.3 14.67 4.5 20.16 4a1.88 1.88 0 0 0 .5-3.68 65 65 0 0 0-20.35-3c-2.48 0-2.33 3.45 0 3.75a154.13 154.13 0 0 0 19.79 1.29c3.53 0 8.53.93 10.76-2.42.86-1.29-.31-2.7-1.62-2.82a13.42 13.42 0 0 0-7.39 1.34c-2.08.95-.48 3.74 1.44 3.43a32.63 32.63 0 0 0 11.07-3.93c2-1.12.54-3.73-1.44-3.43a51.74 51.74 0 0 0-8.36 2l1.44 3.43 7.33-3.17c1.93-.83.53-4.21-1.44-3.43l-5.8 2.26c-2.19.87-1.38 4.3 1 3.62a21.21 21.21 0 0 0 4.92-2c1.39-.81 3.24-3 4.8-3.22l-1.87-1.87a4.88 4.88 0 0 1-3.49 4.24l2.57 2.57c1.32-2 2.7-4 4.21-5.93l-3.2-1.33c0 7.32-8.57 7.68-13.89 7.71-2.41 0-2.42 3.76 0 3.75a51.6 51.6 0 0 0 10.5-1.12c2-.43 1.62-3.93-.5-3.68l-12.54 1.48c-2.33.28-2.46 3.87 0 3.75a24.08 24.08 0 0 0 14.11-5.29c1.9-1.48-.77-4.11-2.65-2.65a19.68 19.68 0 0 1-11.46 4.19V395l12.54-1.48-.5-3.68a46.61 46.61 0 0 1-9.5 1v3.75c7.6 0 17.7-1.87 17.64-11.46 0-1.48-2.15-2.66-3.2-1.33-1.7 2.16-3.3 4.37-4.8 6.68-1.13 1.75 1 3.24 2.57 2.57 3.32-1.43 4.9-4 5.34-7.48a1.87 1.87 0 0 0-1.87-1.87c-4.05.52-6.7 4.17-10.71 5.32l1 3.62 5.84-2.31-1.45-3.44-7.33 3.17c-1.95.84-.56 4.08 1.44 3.43a51.74 51.74 0 0 1 8.36-2l-1.47-3.41a29.72 29.72 0 0 1-10.17 3.56l1.44 3.43a8.28 8.28 0 0 1 5.49-.83l-1.62-2.82c-1.21 1.82-11.11.54-13.19.46-4.73-.17-9.43-.6-14.12-1.19v3.75a61.77 61.77 0 0 1 19.35 2.86l.5-3.68a43.23 43.23 0 0 1-8.1.15c-1.94-.17-7.51-.32-8.82-2.25l-2.12 2.75 11.21 1.67a1.88 1.88 0 0 0 1-3.62 73.6 73.6 0 0 0-13.58-3v3.75a284.273 284.273 0 0 1 24.42-.67 1.88 1.88 0 0 0 .5-3.68 97.33 97.33 0 0 0-19.19-2.83 1.89 1.89 0 0 0-1.62 2.82c3.25 5.38 13.73 4.37 19 4.58v-3.75l-19.13.5a1.88 1.88 0 0 0 0 3.75L342 392v-3.75a135.53 135.53 0 0 1-28.87-.45v3.75c6.757.573 13.54.774 20.32.6a1.88 1.88 0 0 0 0-3.75c-13.21-.81-26.39 0-39.58.95l.5 3.68a86.6 86.6 0 0 1 15.32-1.9l-.5-3.68a124.08 124.08 0 0 1-18.6 1.55v3.75a459.113 459.113 0 0 1 34-2.32c2-.06 2.64-3.21.5-3.68-8-1.76-16-1.89-24.13-1.86-2 0-2.65 3.35-.5 3.68a120.3 120.3 0 0 0 26.74 1.19 1.88 1.88 0 0 0 .5-3.68c-9.83-3.52-20.07-2.07-30.13-.41-1.87.31-1.71 3.19 0 3.62a84.14 84.14 0 0 0 28.9 2.08c1.94-.2 2.73-3.21.5-3.68a82.64 82.64 0 0 0-27.35-1.23c-1.95.24-2.72 3.12-.5 3.68a57.82 57.82 0 0 0 25.33.73c2-.38 1.57-3 0-3.62-8.34-3.08-19.43-.89-28.08 0a1.88 1.88 0 0 0 0 3.75c8.94.48 17.883.543 26.83.19 2.4-.09 2.42-3.81 0-3.75-9.82.227-19.643.287-29.47.18v3.75c7.86-.63 15.65-1.49 23.27-3.63 2.34-.66 1.35-4.1-1-3.62a689.06 689.06 0 0 0-42.83 10.35l1 3.62a149.53 149.53 0 0 1 24.08-5.54l-1-3.62a122.55 122.55 0 0 1-24.43 5.36l.5 3.68a158.06 158.06 0 0 0 24.58-6.44c1.85-.65 1.73-4-.5-3.68a159.3 159.3 0 0 0-25 5.32 1.88 1.88 0 0 0 1 3.62l23.73-5.06c2.37-.51 1.36-4.08-1-3.62l-21.65 4.22 1 3.62 27-7.34c2.4-.65 1.32-3.94-1-3.62l-25.98 3.61 1 3.62 22.16-3.89-1-3.62c-11.56 3-23.13 5.9-35.18 5.32-1.77-.09-2.67 2.74-.95 3.49a62.59 62.59 0 0 0 7.83 2.85c2 .58 3.34-2.41 1.44-3.43a70.39 70.39 0 0 0-8.87-4c-1.77-.65-3.16 1.91-1.82 3.13 4.15 3.81 9.72 3.7 14.43 6.43l.95-3.49c-3.86-.324-7.7-.865-11.5-1.62-2.36-.47-3.37 3.15-1 3.62l.01.04z"/></g></svg>