<svg id="Layer_2" data-name="Layer 2" xmlns="http://www.w3.org/2000/svg" viewBox="0 0 256 256"><defs><style>.cls-1,.cls-2{fill:#010101;stroke:#010101;stroke-linecap:round;stroke-linejoin:round;stroke-width:4px}.cls-2{fill:none;stroke:#fff}</style></defs><path class="cls-1" d="M149.79 251.54h-.93c-24.32.47-48.64.73-73 .15-9.9-.24-19.8.11-29.6-.18-7.27-.21-18.43.15-24.42-5-6.55-5.68-6.19-18.08-6.78-26.21-1.63-22.54 1.37-45.06 1.4-67.6 0-27.27.33-54.87-2.59-82.06-1.56-14.51-3.76-29-3.44-43.6.17-7.39 2-16.23 9-18.81 7.44-2.77 15.08 3.83 19 10.71 8.41 14.66 9.42 32.26 10.22 49.14l3.35 70.4c.06-37.26 2.52-74.59 19.23-107.89C75.66 21.84 81.36 13.21 90 8.6c6.25-3.34 15.16-3.72 19.38 2 3 4.08 2.56 9.72 1.68 14.73-3.24 18.49-10.36 35.78-15.28 53.8-4.88 17.81-6.78 38.19-6.1 56.67-.78-19.74 9.36-42 17.1-59.75 8.38-19.2 20.28-36.86 35.81-51 10.71-9.74 23.72-17.45 38-19.68a27.57 27.57 0 019-.16 18.29 18.29 0 0113.09 10 18.28 18.28 0 01-.47 16.44c-2.64 4.8-7.29 8.11-11.78 11.27-16.25 11.42-32.55 23.12-45.77 38S121.38 114.08 120 133.9c6.41-14.74 13.5-29.46 24-41.59s24.26-21.92 39.88-25.68 33.19-.91 45.52 9.4c11.91 10 17.62 24.89 17.73 40.23 0 5.36-.58 10.86-3 15.62s-7 8.67-12.35 9.22c-9.53 1-16.89-7.56-19.4-15.71-2.15-7-3.6-15.91-11.92-17.9-11.43-2.72-25.09 2.91-34.65 9-10.57 6.7-19.09 18.19-23 30-4.66 14-3 30.31 5.49 42.4 7.53 10.7 20.63 17.2 33.8 17.9a31.59 31.59 0 0019.13-5c7.79-5.15 7.66-9.73 10.41-18.07 2.17-6.56 7-12.48 13.6-14.67s14.68 0 18.25 6c2.31 3.85 2.52 8.55 2.56 13a260.84 260.84 0 01-2.63 39c-.79 5.53-1.89 11.32-5.51 15.57-5.23 6.15-14.12 7.37-22.17 7.93-22.04 1.54-43.92.64-65.95.99z"/><path class="cls-1" d="M236.7 152.26c-2.42-2.66-7.64-4.09-10.56-1.72-6.59 5.36 1.37 10.44 6.84 9.51a6.12 6.12 0 002.48-1c3.27-2.23 3.01-4.84 1.24-6.79z"/><path class="cls-2" d="M7.73 49.26c11.07-7.71 14-30.06 5.93-41.14M66.87 33.24c1.81 1.53 7.75 1.15 9.92.2 10.72-4.66 19.35-15.82 20.52-29.67M148.16 17.62c4.16 2.58 10.88 2.63 14.5 2.57 6-.1 11.64-1.8 17.18-3.94a38.87 38.87 0 0016-12.48M244.1 90.41c-10.93 10.21-18.38 39.74-1.19 47.07M245.68 173.48c-4.75 2.38-9.2 8-10.36 12.48a27.23 27.23 0 00.25 13.74c1.27 4.77 5.27 12 11.56 13.74"/></svg>