<svg id="Layer_2" data-name="Layer 2" xmlns="http://www.w3.org/2000/svg" viewBox="0 0 1088 952"><defs><style>.cls-1,.cls-2{fill:none;stroke:#fff;stroke-linecap:round;stroke-linejoin:round;stroke-width:4px}.cls-2{fill:#fff}</style></defs><path d="M99.4 644.39C44 607.42 34.68 500.23 35 442c.54-85.13 20.63-173.91 60.81-249.26C141 108 209 58.94 304.16 54.23c61.51-3 121.26-3.29 182.72-1.73l121.57 3.09c20.94.54 42.39 1.17 61.86 8.91 33.37 13.25 55.94 45.91 66.06 80.36s9.61 71 9 106.9q-1.12 67.94-2.26 135.88c60.22.59 124-1 184.12-4.19-.65-34.45-2.64-72.51-3.29-107-6.2 24.19-24.78 45.71-48.94 52s-52.74-5.06-63.14-27.77c-6.13-13.39-5.79-28.8-4.08-43.42.92-7.92 2.39-16.23 7.52-22.35s15.05-8.87 21.21-3.81c3.53 2.9 5 7.53 6.64 11.81 4.73 12.57 14.28 25.66 27.71 25.77 11.07.09 20.18-8.89 25.63-18.52 8.48-15 11-34.4 2.48-49.37s-30.06-22.4-44.24-12.6c-9.14 6.32-14.67 18.53-25.6 20.56-9.26 1.73-18.46-5.51-21.53-14.41s-1.24-18.79 2.08-27.59c7.63-20.23 24.09-37.85 45.06-43.1s45.76 4.25 54.8 23.89c1.89 4.1-2-2.2.55 1.53 6.51-41.33-33.32-65.91-69.22-65.92-9.53 0-19.47.45-28.13-3.52-42-19.31 22.25-57.16 46.43-53.4 21.7 3.37 40.51 18.22 52.31 36.74s17.3 40.44 19.85 62.26a81.84 81.84 0 00-8.83-73.92c-5.48-8-12.83-16.66-10.65-26.12 2.72-11.77 18.51-15.27 30-11.64 17.45 5.55 31.35 21.99 36.73 39.15 3.35 10.69 2.72 23.7 3.7 34.88l3.33 37.73 6.76-64.79c.65-6.22 1.32-12.5 3.25-18.46 6-18.61 24.63-23.64 33.94-5.42 6.19 12.12 8.51 27.05 9.11 40.55q2.44 55.32 3.66 110.68 2.49 112.71 0 225.44c-.44 19.94-1 40-5.41 59.49-9.07 40.18-29.74 69.35-71 81.6 26 9.45 45.15 32.72 55.62 58.33s13.36 53.6 15.32 81.2c4.6 65.09 2.48 136.81-39.91 186.43-18.1 21.18-61.06 21.81-86.75 24a4157.15 4157.15 0 01-456.23 13.58c-14.84-.37-29.88-.85-44.12-5a88.11 88.11 0 01-51.62-41.44c-44 14.83-89.49 35.78-133.5 50.61-28.08 9.46-56.5 19-86 21.4s-60.75-3-84.33-21c-9-6.84-16.88-15.64-20.79-26.25-8.62-23.45 3.84-49.67 20.59-68.2 14.83-16.41 33-29.42 51.67-41.33 42.81-27.38 95.84-59.5 146.43-69-18.87-4.77-36.18-9.59-50-24.28a125.34 125.34 0 01-13.92-18.27c-2.13-3.3-4.16-6.66-6.15-10-.43-.72-3.86-7.44-4.23-7.43-14.27.28-28.59.56-42.83-.77a76.28 76.28 0 01-35.77-12.59z"/><path d="M530.35 44.55a24.79 24.79 0 0119.32.47 18 18 0 018.61 7.13c1.89 3.28 2.18 7.63.1 10.79-2.21 3.35-6.41 4.7-10.36 5.41-8 1.45-20.94 1.63-26.86-5.24s2.84-15.86 9.19-18.56z"/><path class="cls-1" d="M204.67 509.63c6-85.14 14.83-171.24 25.62-255.9 6.25-49 13.68-99.18 37.15-142.7 3.45-6.39 7.55-12.92 14-16.19 4.94-2.5 12.95-2.55 16.86 2 4.53 5.24 2.93 14.06 1.66 20.14-4.25 20.47-10.28 56.09-14.53 76.55 3.32-19.64 9.8-54.21 15.82-73.2C305 108.66 309 97.13 319.1 89.4c7.71-5.9 21.06-9.81 26.42 1 3.65 7.39-.76 17.46-3.88 24.27-4 8.66-6.56 17.86-9.32 27q-8.43 27.76-14.82 56.11c5.37-16 9.35-32.55 15.24-48.41 6.61-17.77 15.62-35.86 28.46-49.87 8.24-9 26.38-26.57 39.67-16.5 15.95 12.1-6.2 37.31-13.07 47.72-14.23 21.59-28 43.7-37.94 67.64 12.3-26.85 27.89-55 48.64-76.28 9.7-9.94 21.37-21 35.45-23.92 13.05-2.69 32.59 6.64 25.05 22.52-2.79 5.9-8.24 10-13.44 14-18.52 14.09-36.44 29.19-51.5 46.93-13.29 15.65-24.36 33.47-30.8 53-7.12 21.68-9.65 44.74-11.86 67.41-3.79 38.95-6.36 78.11-4.82 117.21 1.21 30.63 4.94 61.23 3.61 91.85s-8.16 61.95-26 86.87a111.66 111.66 0 01-28.64 27.76c-25.24 16.89-56.09 22.74-86.11 27.35-28.36 4.37-57.59 7.93-85.52 1.34S69.3 629 61 601.55M597.46 323.84l-3.27 80.77c-.8 19.82-1.6 39.81 1.68 59.37s10.94 38.93 25 53C646.28 542.5 686 545.38 722 546.73L940.89 555c19 .71 37.3-.62 53.77-10.49 15.15-9.07 27.86-21.87 38.42-35.9M803.15 189.63c2.65 5.13 9 7.78 14.7 6.75s10.48-5.33 12.85-10.6a26.38 26.38 0 001.15-17c-2.46-10.16-10.48-19.33-20.79-21.09M796.63 49c.13 4.28 2.89 8.16 6.42 10.59 8.77 6.05 21.82 3.44 28.88-4.54s8.42-20 5-30.09c-.65-1.91-2.1-4.14-4.07-3.71M936.23 8A19.26 19.26 0 00933 25.45a19.26 19.26 0 0012.6 12.46 23.23 23.23 0 0015.48-1.26 40.38 40.38 0 0012.81-9.15M1026.27 25.54c-6.4 5.34-11 13.83-9 21.92 1.58 6.48 7.21 11.51 13.6 13.43s13.37 1 19.6-1.36M806.57 239.72c13.1-8.58 19.36 3.92 20.81 15.52a32.83 32.83 0 01.08 9.18 21.9 21.9 0 01-29.74 17"/><path class="cls-1" d="M459.3 120.07c45.51-4 59 48.75 65.82 82.84 36.93 184.18-6.68 376.91 26.61 561.78 96.74-.76 198.22 6.94 294.74 13.52 48.88 3.33 154.15.54 159.26 68.22 4.21 55.72-66 68.75-107.37 76.85"/><path class="cls-1" d="M357.16 848c20.48 33.42 65.06 36.68 99.36 41.85 17.69 2.66 35.67 2.45 53.55 2.23l384.33-4.73c20.66-.25 41.57-.54 61.52-5.91s39-16.33 49.9-33.71M541 675.29c116.43 3.26 186.81 5 342.34 6M539 544c51.32.74 114.57 1.19 165.89 1.93M63.65 810.45a940 940 0 01139-75.37c49.29-21.59 102.28-37.16 153.5-53.76M911.65 655.94a149.89 149.89 0 00-27.91 25.21c7.48 11.27 16.76 22.06 27.39 30.44M631.11 48.32c14.66 9 28 17 35.85 33 7 14.29 8.71 30.73 7.16 46.56-.64 6.52-1.87 13.12-5 18.86-4.42 8-12.35 13.7-21 16.83s-17.89 3.89-27 3.88a82.94 82.94 0 01-1.38 21.73c-1.05 5.3-2.9 10.89-7.29 14-4.23 3-10.06 3.06-14.92 1.2s-8.91-5.38-12.53-9.06a101.39 101.39 0 01-17.52-24.25c-.23 4.27-3.19 8.67-6.87 11.6A89.28 89.28 0 01525 199.84"/><path class="cls-1" d="M517.75 58.23c2.64-9.71 10.8-16.68 21.36-16.21C551 42.55 560 52.56 567.24 62a661.65 661.65 0 0138 54.8"/><path class="cls-2" d="M622.39 112.21c-1.25.11-2.4.26-3.38.4a45.31 45.31 0 00-23.76 10.77c-4.67 4.2-9 9.91-8.21 16.15.66 5.29 5 9.61 10.05 11.36s10.6 1.28 15.75-.07c7.33-1.91 15.43-3.88 21.22-9.42 6.78-6.48 13.4-21.17 1.93-26.94a26 26 0 00-13.6-2.25zM623.32 169.38c-2.59 3.13-2.16 9.57-1.83 13.05a7.41 7.41 0 002.31 5c1.52 1.29 3.62 1.63 5.62 1.79A49.65 49.65 0 00653.9 185c5-2.29 11.89-7.35 12.55-13.37.73-6.77-7-11.16-12.46-9.56-7.7 2.24-14.46 5.89-22.77 5.63a24.57 24.57 0 00-5 0 4.79 4.79 0 00-2.9 1.68z"/><path class="cls-1" d="M620.3 144.65a8 8 0 015.27 1.79 24.14 24.14 0 019.11 26M264.72 117.08c4.93 2.47 11.22 1.51 15.56-1.87a19.13 19.13 0 007-14.43c.07-2.4-.33-5-2-6.73M308 103.64a16.18 16.18 0 0015.63 5.52 17.05 17.05 0 004.92-1.91 18.59 18.59 0 007.74-23.65M367.87 93a10.94 10.94 0 005.37 5.34 19.93 19.93 0 0024-5.17c2.18-2.75 3.61-6.4 2.64-9.77M196.88 766.45c20.56 26.08 39.8 53.71 51.69 84.71M255.29 737.75A285.07 285.07 0 01305 829.63M310.66 713.63a812.1 812.1 0 0147.07 77.6M624 636.51c3.39-5.66 7.43-11.32 13.34-14.26s14.12-2.2 17.84 3.24c11.26 16.46-8.77 55.37-14.74 71.67-9.56 26.11-19.87 52.65-20.54 80.82.71-29.86 19.52-66.19 33.62-91.73 10.44-18.92 20.82-59.58 46.18-63a9.52 9.52 0 015.83.71c2.18 1.18 3.39 3.6 4.11 6 3.48 11.37-1.37 23.5-6.69 34.14a330 330 0 01-35.66 56.25c-7.86 10-16.32 19.49-24.17 29.48-6.71 8.55-13.2 24.19-22 29.81-15.85-12.4-17.95-51.85-17.59-70.53a146.94 146.94 0 0120.47-72.6zM687.22 768.51q-3.51 33.12-8.82 66M752.19 774C750 798.47 747 816.65 743 841.9M819.55 776.94l-11.17 69.46M543.76 193.25c-16.74-26-14.92-61.2 3.91-85.5M188.56 531.29c5.34-7.94 10.76-13.72 16.11-21.66 4 8.23 8 14.3 12 22.53M414.14 107.73c12.62 9.43 31.53 9.3 44-.31M684 90.09a29.06 29.06 0 01-9.32 16.38c5.22-1.33 10.82 1.58 14.07 5.87s4.61 9.71 5.54 15M586.52 306.94c4 5.39 7.41 11.2 11 16.86A151.07 151.07 0 01613 303.61"/><path d="M53.3 835c-13.3 16.33-23.58 37.59-18.71 58.13 4.61 19.43 21.88 33.65 40.41 41.08 47.48 19 103.78 5.29 150.26-10.35 16.09-5.41 31.81-11.82 47.53-18.23l66.62-27.14c6.47-2.64 13-5.28 19.29-8.26" stroke="#000" stroke-linecap="round" stroke-linejoin="round" stroke-width="4" fill="none"/><path class="cls-1" d="M379.38 903.5c-23.23-18.18-22-37.3-21.61-64.12 1.49-98.06-2-232-7.46-330.88"/><path class="cls-1" d="M357.16 848C278 895 184.61 923.66 92.77 916.75c-12.8-1-25.72-2.64-37.64-7.4S31.31 897.22 29 883.76a106.53 106.53 0 011.2-42M921.85 293.15q64.59-35.92 130.43-69.51M920.4 310.67q65.19-39.76 132.19-76.47M224.11 304.24c45.67-14 87.46-32.88 133.72-49M222.41 329q66.59-26.37 131.93-55.53M358.28 748.35c11.6-1.2 23.1 3.36 33 9.48s18.8 13.83 28.73 19.95A107.77 107.77 0 00487.88 793c23.46-2.62 47.32-11.35 64.2-27.86M42.12 902.38a131.85 131.85 0 012.25 26.68M59.05 912l2.11 21.84M84 916.8l1 26.64M118.36 919.47a204.08 204.08 0 002 34.67M150.2 918.39q1.61 16.74 1.8 33.61M180.7 913.6l.82 28.78M207 909.35a153.66 153.66 0 001.11 24M233 903l1.88 19.15M256.47 895.51a137.76 137.76 0 01.71 23.94M274.39 889.61a107.33 107.33 0 01.5 22.38M290.48 883.26l1.12 18.64M303.56 876.88q.45 9.06 1.65 18.06M319.61 870.45a132.37 132.37 0 00.46 19.71M330.13 864.07a111.86 111.86 0 002.46 22.93M340.39 858.71a165.22 165.22 0 011.89 21.88M350.65 853.43l1.84 29.28M367.76 861.41q.48 15.23 2.24 30.36M381.06 871l2.54 39.43M401.3 880.59l1 40.49M436 888.06a252.41 252.41 0 002.47 45.3M470.37 891.25a103.72 103.72 0 002.21 28M505.58 892a188.61 188.61 0 011.33 27.2M548.19 892q.94 15.84 1.49 31.7M589.13 892q1 16.1.58 32.23M632.38 891.51q-.2 16.9.37 33.83M671.44 890.44q.45 16.78 1.48 33.56M713.11 890.45q.51 16.77-.57 33.55M993.35 862.67v30.17M978.08 873.06a237 237 0 01-3 29.35M959.13 880.85A167.46 167.46 0 01957 907M932.58 885.45q-.66 13.57-.53 27.17M893.44 887.34A266.55 266.55 0 01894 932M838.46 888.84l2 43.94M796.48 889.36c.84 14.65 2 30.38 2.88 45M755.08 889.36c.69 12.79 1.1 26.65 1.79 39.44"/></svg>